<svg xmlns="http://www.w3.org/2000/svg" xmlns:xlink="http://www.w3.org/1999/xlink" id="Layer_1" x="0px" y="0px" viewBox="0 0 368 97.1" style="enable-background:new 0 0 368 97.1;" xml:space="preserve"><style type="text/css">	.st0{fill:#010101;}	.st1{clip-path:url(#SVGID_00000087372242971717184190000000816758024713226899_);fill:#010101;}			.st2{clip-path:url(#SVGID_00000087372242971717184190000000816758024713226899_);fill-rule:evenodd;clip-rule:evenodd;fill:#C73643;}</style><polygon class="st0" points="108.2,85.2 108.2,62.8 122.5,62.8 122.5,65.5 111.6,65.5 111.6,72.6 120.6,72.6 120.6,75.3 111.6,75.3  111.6,85.2 "></polygon><g>	<defs>		<rect id="SVGID_1_" x="8.3" y="8.3" width="350" height="84"></rect>	</defs>	<clipPath id="SVGID_00000091732498745590652160000008865468287837785487_">		<use xlink:href="#SVGID_1_" style="overflow:visible;"></use>	</clipPath>	<path style="clip-path:url(#SVGID_00000091732498745590652160000008865468287837785487_);fill:#010101;" d="M131.7,85.6  c-2,0-3.5-0.6-4.6-1.8c-1.1-1.2-1.7-3-1.7-5.4v-9.1h3.5v8.8c0,3.1,1.3,4.6,3.8,4.6c1.3,0,2.3-0.4,3.2-1.3c0.8-0.9,1.2-2.2,1.2-3.8  v-8.2h3.5v15.9h-3.1l-0.3-2.8c-0.5,1-1.2,1.8-2.2,2.3C134.1,85.3,133,85.6,131.7,85.6"></path>	<path style="clip-path:url(#SVGID_00000091732498745590652160000008865468287837785487_);fill:#010101;" d="M145,85.2V69.3h3.1  l0.3,2.8c0.5-1,1.2-1.8,2.2-2.3c1-0.6,2.1-0.9,3.4-0.9c2,0,3.5,0.6,4.6,1.8c1.1,1.2,1.7,3,1.7,5.4v9.1h-3.4v-8.8  c0-3.1-1.3-4.6-3.8-4.6c-1.3,0-2.3,0.4-3.2,1.3c-0.8,0.9-1.2,2.2-1.2,3.8v8.2H145z"></path>	<path style="clip-path:url(#SVGID_00000091732498745590652160000008865468287837785487_);fill:#010101;" d="M171.5,85.6  c-1.6,0-2.9-0.4-4.1-1.1c-1.2-0.7-2.1-1.7-2.8-3c-0.7-1.3-1-2.7-1-4.3c0-1.6,0.3-3,1-4.3c0.7-1.3,1.6-2.2,2.8-2.9  c1.2-0.7,2.6-1.1,4.2-1.1c1.3,0,2.4,0.2,3.4,0.7c1,0.5,1.7,1.2,2.3,2.1v-9.6h3.5v23.1h-3.1l-0.4-2.5c-0.5,0.7-1.2,1.4-2.2,2  C174.1,85.3,173,85.6,171.5,85.6 M172.2,82.6c1.5,0,2.7-0.5,3.6-1.5c1-1,1.4-2.3,1.4-3.9c0-1.6-0.5-2.9-1.4-3.9  c-0.9-1-2.1-1.5-3.6-1.5c-1.5,0-2.7,0.5-3.6,1.5c-1,1-1.4,2.3-1.4,3.9c0,1,0.2,2,0.7,2.8c0.4,0.8,1,1.5,1.8,1.9  C170.3,82.4,171.2,82.6,172.2,82.6"></path>	<path style="clip-path:url(#SVGID_00000091732498745590652160000008865468287837785487_);fill:#010101;" d="M190.5,85.6  c-1.4,0-2.5-0.2-3.4-0.7c-0.9-0.4-1.6-1-2-1.8c-0.4-0.7-0.7-1.6-0.7-2.4c0-1.5,0.6-2.8,1.8-3.7c1.2-0.9,3-1.3,5.2-1.3h4.2v-0.3  c0-1.2-0.3-2.2-1-2.8c-0.7-0.6-1.6-0.9-2.6-0.9c-1,0-1.8,0.2-2.5,0.7c-0.7,0.4-1.1,1.1-1.3,2h-3.5c0.1-1.2,0.5-2.1,1.2-2.9  c0.7-0.8,1.6-1.5,2.6-1.9c1.1-0.4,2.2-0.7,3.5-0.7c2.3,0,4,0.6,5.2,1.8c1.2,1.2,1.9,2.7,1.9,4.7v9.8h-3l-0.3-2.7  c-0.5,0.9-1.1,1.6-2,2.2C193,85.3,191.9,85.6,190.5,85.6 M191.2,82.8c0.9,0,1.7-0.2,2.3-0.6c0.7-0.4,1.2-1,1.5-1.8  c0.4-0.7,0.6-1.5,0.7-2.4h-3.8c-1.4,0-2.3,0.2-2.9,0.7c-0.6,0.5-0.8,1.1-0.8,1.8c0,0.7,0.3,1.3,0.8,1.7  C189.5,82.6,190.2,82.8,191.2,82.8"></path>	<path style="clip-path:url(#SVGID_00000091732498745590652160000008865468287837785487_);fill:#010101;" d="M210.9,85.6  c-1.6,0-3-0.4-4.3-1.1c-1.2-0.7-2.2-1.7-2.9-2.9c-0.7-1.3-1-2.7-1-4.4c0-1.6,0.3-3.1,1-4.3c0.7-1.3,1.7-2.2,2.9-2.9  c1.3-0.7,2.7-1.1,4.3-1.1c2,0,3.7,0.5,5,1.5c1.4,1,2.2,2.4,2.6,4.2h-3.6c-0.2-0.9-0.7-1.6-1.4-2.1c-0.7-0.5-1.6-0.7-2.6-0.7  c-0.8,0-1.6,0.2-2.3,0.6c-0.7,0.4-1.3,1-1.7,1.8c-0.4,0.8-0.7,1.8-0.7,2.9c0,1.2,0.2,2.2,0.7,3c0.4,0.8,1,1.4,1.7,1.8  c0.7,0.4,1.5,0.6,2.3,0.6c1,0,1.9-0.2,2.6-0.7c0.7-0.5,1.2-1.2,1.4-2.1h3.6c-0.4,1.7-1.2,3.1-2.6,4.1S212.9,85.6,210.9,85.6"></path>	<path style="clip-path:url(#SVGID_00000091732498745590652160000008865468287837785487_);fill:#010101;" d="M224.3,66.3  c-0.7,0-1.2-0.2-1.6-0.6c-0.4-0.4-0.6-0.9-0.6-1.5c0-0.6,0.2-1.1,0.6-1.5c0.4-0.4,1-0.6,1.6-0.6c0.7,0,1.2,0.2,1.6,0.6  c0.4,0.4,0.7,0.9,0.7,1.5c0,0.6-0.2,1.1-0.7,1.5C225.5,66.1,225,66.3,224.3,66.3 M219.2,92.3v-2.9h1.3c0.8,0,1.3-0.2,1.6-0.5  c0.3-0.3,0.5-0.8,0.5-1.5v-18h3.5v18.1c0,1.7-0.4,3-1.3,3.7c-0.9,0.8-2.1,1.2-3.7,1.2H219.2z"></path>	<path style="clip-path:url(#SVGID_00000091732498745590652160000008865468287837785487_);fill:#010101;" d="M236,85.6  c-1.4,0-2.5-0.2-3.4-0.7c-0.9-0.4-1.6-1-2-1.8c-0.4-0.7-0.7-1.6-0.7-2.4c0-1.5,0.6-2.8,1.8-3.7c1.2-0.9,3-1.3,5.2-1.3h4.2v-0.3  c0-1.2-0.3-2.2-1-2.8c-0.7-0.6-1.6-0.9-2.6-0.9c-1,0-1.8,0.2-2.5,0.7c-0.7,0.4-1.1,1.1-1.3,2h-3.5c0.1-1.2,0.5-2.1,1.2-2.9  c0.7-0.8,1.6-1.5,2.6-1.9c1.1-0.4,2.2-0.7,3.5-0.7c2.3,0,4,0.6,5.2,1.8c1.2,1.2,1.9,2.7,1.9,4.7v9.8h-3l-0.3-2.7  c-0.5,0.9-1.1,1.6-2,2.2C238.6,85.3,237.5,85.6,236,85.6 M236.7,82.8c0.9,0,1.7-0.2,2.3-0.6c0.7-0.4,1.2-1,1.5-1.8  c0.4-0.7,0.6-1.5,0.7-2.4h-3.8c-1.4,0-2.3,0.2-2.9,0.7c-0.6,0.5-0.8,1.1-0.8,1.8c0,0.7,0.3,1.3,0.8,1.7  C235,82.6,235.8,82.8,236.7,82.8"></path>	<polygon style="clip-path:url(#SVGID_00000091732498745590652160000008865468287837785487_);fill:#010101;" points="257.1,85.2   257.1,62.8 260.6,62.8 260.6,72.4 271.6,72.4 271.6,62.8 275.1,62.8 275.1,85.2 271.6,85.2 271.6,75.2 260.6,75.2 260.6,85.2  "></polygon>	<path style="clip-path:url(#SVGID_00000091732498745590652160000008865468287837785487_);fill:#010101;" d="M287.1,85.6  c-1.6,0-3-0.3-4.2-1c-1.2-0.7-2.2-1.7-2.9-2.9c-0.7-1.2-1-2.7-1-4.3c0-1.7,0.3-3.1,1-4.4c0.7-1.3,1.7-2.2,2.9-2.9  c1.2-0.7,2.7-1.1,4.3-1.1c1.6,0,3,0.4,4.1,1.1c1.2,0.7,2.1,1.6,2.7,2.8c0.7,1.2,1,2.4,1,3.8c0,0.2,0,0.4,0,0.7c0,0.2,0,0.5,0,0.8  h-12.6c0.1,1.5,0.6,2.7,1.5,3.5c0.9,0.8,2,1.2,3.2,1.2c1,0,1.8-0.2,2.4-0.6c0.7-0.4,1.2-1,1.5-1.8h3.5c-0.4,1.5-1.3,2.7-2.6,3.7  C290.6,85.1,289,85.6,287.1,85.6 M287.1,71.7c-1.2,0-2.2,0.3-3.1,1c-0.9,0.7-1.4,1.7-1.6,3h9.1c-0.1-1.2-0.5-2.2-1.3-2.9  C289.4,72.1,288.4,71.7,287.1,71.7"></path>	<path style="clip-path:url(#SVGID_00000091732498745590652160000008865468287837785487_);fill:#010101;" d="M304.1,85.6  c-1.4,0-2.5-0.2-3.4-0.7c-0.9-0.4-1.6-1-2-1.8c-0.4-0.7-0.7-1.6-0.7-2.4c0-1.5,0.6-2.8,1.8-3.7c1.2-0.9,3-1.3,5.2-1.3h4.2v-0.3  c0-1.2-0.3-2.2-1-2.8c-0.7-0.6-1.6-0.9-2.6-0.9c-1,0-1.8,0.2-2.5,0.7c-0.7,0.4-1.1,1.1-1.3,2h-3.5c0.1-1.2,0.5-2.1,1.2-2.9  c0.7-0.8,1.6-1.5,2.6-1.9c1.1-0.4,2.2-0.7,3.5-0.7c2.3,0,4,0.6,5.2,1.8c1.2,1.2,1.9,2.7,1.9,4.7v9.8h-3l-0.3-2.7  c-0.5,0.9-1.1,1.6-2,2.2C306.6,85.3,305.5,85.6,304.1,85.6 M304.8,82.8c0.9,0,1.7-0.2,2.3-0.6c0.7-0.4,1.2-1,1.5-1.8  c0.4-0.7,0.6-1.5,0.7-2.4h-3.8c-1.4,0-2.3,0.2-2.9,0.7c-0.6,0.5-0.8,1.1-0.8,1.8c0,0.7,0.3,1.3,0.8,1.7  C303,82.6,303.8,82.8,304.8,82.8"></path>	<path style="clip-path:url(#SVGID_00000091732498745590652160000008865468287837785487_);fill:#010101;" d="M316.8,85.2V69.3h3.1  l0.3,3c0.6-1,1.3-1.9,2.3-2.5c1-0.6,2.2-0.9,3.7-0.9v3.6h-0.9c-1,0-1.8,0.2-2.6,0.5c-0.7,0.3-1.3,0.8-1.8,1.6  c-0.4,0.7-0.7,1.7-0.7,3v7.6H316.8z"></path>	<path style="clip-path:url(#SVGID_00000091732498745590652160000008865468287837785487_);fill:#010101;" d="M336,85.2  c-1.6,0-2.8-0.4-3.8-1.1c-0.9-0.8-1.4-2.1-1.4-4.1v-7.9H328v-2.9h2.8l0.4-4h3v4h4.6v2.9h-4.6V80c0,0.9,0.2,1.5,0.6,1.8  c0.4,0.3,1.1,0.5,2,0.5h1.9v2.9H336z"></path>	<polygon style="clip-path:url(#SVGID_00000091732498745590652160000008865468287837785487_);fill:#010101;" points="344.2,92.3   348.1,83.9 347.2,83.9 340.8,69.3 344.5,69.3 349.5,81.1 354.7,69.3 358.3,69.3 347.9,92.3  "></polygon>			<path style="clip-path:url(#SVGID_00000091732498745590652160000008865468287837785487_);fill-rule:evenodd;clip-rule:evenodd;fill:#C73643;" d="  M82.4,11.7c-3.4-2.1-7.3-3.4-11.7-3.4c-6.2,0-13,2.7-19.7,7.4c-5.3-4.1-10.8-6.5-16-7.3l-0.4,0.4c-1.4,1.1-4.8,3.4-6.7,2.7  C26,10.8,21.7,14,21,14c-0.2,0,0-2.5,1.4-2.7c-0.5,0,2.8-1.8,4.1-2.7c-2.1,0.5-4.1,1.2-6,2.3c0.4,0.2,0.5,0.4-0.2,0.9  c-0.7,0.5-1.1,3.2-1.8,3.2c-1.8,1.1-2.1-1.4-3.9,1.9c-0.2,0.4-0.7,0.5-1.4,0.9c-2,3-3.4,6.5-4.3,10.6c-1.2,6.7-0.5,14.3,2.5,21.8  l1.6,0.2c0.7,0.4,1.8,2.5,2.3,3c1.4,1.6,3.2,1.9,4.8,3.2c1.1,0.7,3.2,2.7,3.4,3.9c0.2-0.9,5.5,1.2,6.6,1.6c2.5,1.1,4.6,2.8,3,5.7  c-0.5,1.1,3.2,3.7,2.7,5.1L34.5,74c-0.5,0.9-0.2,1.8,0.4,2.5c4.4,2.8,9.6,5.5,15.3,7.8c0.4,0.2,0.7,0.2,1.1,0.2  c0.4,0,0.7-0.2,1.1-0.2c26.8-11,39.4-28.8,41.2-45c-1.6,0.2-3.6,0.4-3.6-0.5c-0.2-0.9-1.2,0.2-2.1-0.7c-0.4-0.4-1.1-2.3-1.8-2.3  c-1.2,0,0.7,4.1,1.2,4.6c0.9-0.4,3.6-0.7,3.6,0.9c0.2,3.2-4.4,5.3-6.9,6.4c-3.6,1.6-1.8-2.3-3.2-4.2c-0.7-1.1-0.4-2.7-1.1-3.5  c-0.4-0.4-1.8-3.4-1.6-3.7l-0.2,0.5c-0.4,0.2-0.7-1.2-0.7-1.6c-0.4,1.1,0.9,3.4,1.2,4.2c0.5,1.8,0.4,4.1,1.2,5.7  c0.4,0.9,2.1,4.2,2.7,4.4l3.7-0.5c2.1,1.2-9.1,9.9-10.1,11c-0.9,0.9-0.7,4.1-1.2,5.5c-0.5,1.6-2,1.6-3.4,2.1  c-1.6,0.5-1.8,2.3-3,2.7c-2.1,0.5-4.6,3.9-7.3,3c-0.9-0.2-4.4,0-4.6-1.4c0-1.1-0.4-1.9-0.5-3c-0.2-1.1,0.5-1.8,0.2-2.8  c-0.2-0.7-1.2-2.3-1.1-3c0.2-0.5,1.1-2.1,1.8-2.3c0.9-0.2,0.7-1.6,0.7-2.3c0.2-1.4-0.4-2.7-1.1-3.7c-1.1-1.4,0-2.1,0.7-3.5  c0.2-0.7,0-1.8-1.1-1.8c-2.1,0-0.9-1.9-2.5-2.3c-1.1-0.4-2.1,0.2-3.2,0.2c-1.4,0-2.5-1.1-3.6-1.6c-4.8-2.1-4.8-8.5-2.1-12.2  c0.4-0.7,0.2-2.1,0.5-2.5c0.9-1.1,2.5-2.1,3.9-2.8c0.7-0.4,1.4,0,2.3-0.2c1.2-0.4,1.6-1.8,2.8-2.1c1.8-0.7,3.7-0.2,5.7,0.2  c1.1,0.2,5.2,0.5,5.5,1.4c0,0.2,0,2.3-0.7,2.1c1.6,0.5,3,3.9,4.6,3.7c0.9-0.2,1.2-2.5,2.5-0.9c0.7,0.9,4.8,2.5,6,2.1  c0.7-0.2,2-3,1.2-3.5c0.4,0.5-2.3-0.2-2.5-0.4c-0.4-0.4-1.1,0.2-1.6-0.4c0.4,0.4-2-1.9,0-2.7c-0.7,0.4-1.2-0.5-2.1-0.2  c-0.5,0.2,0,0.7-0.7,0.9c-1.2,0.2-1.2-2.5-1.6-2.8c-0.4-0.4-2.8-3.7-2.5-1.9l2,3.7c-0.2,0-0.4-1.2-0.7-0.5c0.4-0.4-0.5,2.1-0.7,1.1  c-0.2-0.4,0.5-0.4,0.4-0.9c0.2-0.4-0.7-0.9-0.7-1.1c-0.4-0.7-1.1-2.3-1.6-2.8c-0.2-0.2-2.8-0.5-3-0.5c-0.4,0.4-0.7,0.5-1.1,0.9  c-0.5,0-1.2,0.2-1.8,0.4l-0.9,1.1c-0.4,0.2-3,0.2-3,0.2c0.2-0.2-1.6-1.2-1.2-1.6c0.4-0.5,1.6-2.3,1.6-3c0-0.7,3.6,2.1,4.4,0.4  c0.4-0.7,0.7-1.8-0.5-2.3c0.2,0,2.8-0.2,3.4-0.5c0.7-0.4,2.1-1.1,3-0.7c1.1,0.4,1.2-1.2,2-1.8c0.4,0.4-0.7,1.2-0.2,1.9  c0.2-0.4,1.6,0.7,1.8,0.7c0.5,0,2.5,0.7,2.5-0.4c0-1.1,0.4-0.7,0.9-0.7c0,0,1.4-1.4,1.8-1.2c-0.4-0.5-1.6,0-2-0.2  c-1.1-0.4,0-2.1,0.5-2.5c0.5-0.4-0.5-1.2-0.9-0.4c-0.4,1.2-1.8,1.9-2.1,3.5c-0.4,2.5-2.5-1.4-2.8-1.2c-1.2,0.4-1.6-1.4-0.9-1.9  c0.7-0.7,2.1-0.4,2.8-1.1c0.5-0.5,1.2-1.1,2-1.4c2.5-1.1,2.5,0.4,4.4,1.2c1.8,0.7,0.5,0.7,0,1.2c-0.5,0.5,0.7,1.2,1.4,0.9  c0.4-0.2,1.2-0.9,1.6-1.4C80.7,11.7,81.9,11.8,82.4,11.7 M60.4,14.5l0.4-0.2h0.4c0.2-0.2,0.5-0.4,0.7-0.2c0.2,0.2,0.4,0.5,0.2,0.7  c-0.2,0.2-0.2-0.2-0.4,0.4c-0.4,0.5-0.9,0.4-1.4,0.5c-0.4,0-0.5-0.2-0.2-0.5l0.5-0.4v-0.4H60.4z M61.8,15.9  c0.2-0.2,0.5,0.2,0.7-0.2c0.2-0.4,0.5-0.5,0.4-1.2c0-0.2,0.5-0.2,0.4-0.5h-0.5c0,0,1.2-2.1,1.8-0.9l-0.4,0.4c0.4,0.7,0.2,1.8,0,2.7  c0.4,0.4,1.1,0.7,0.2,0.9c0.5,0-2.5,0.5-2.7-0.2c-0.2-0.4,1.2-0.2,1.2-0.4C62.7,16.4,61.5,16.1,61.8,15.9"></path>			<path style="clip-path:url(#SVGID_00000091732498745590652160000008865468287837785487_);fill-rule:evenodd;clip-rule:evenodd;fill:#C73643;" d="  M113.4,56.8h239.7c2.9,0,5.2-2.3,5.2-5.2V13.6c0-2.9-2.3-5.2-5.2-5.2H113.4c-2.9,0-5.2,2.3-5.2,5.2v37.9  C108.2,54.5,110.5,56.8,113.4,56.8 M203.1,50.1c-2.3,0-4.3-0.5-6.1-1.6c-1.8-1.1-3.1-2.6-4.1-4.5c-1-1.9-1.5-4-1.5-6.4  c0-2.4,0.5-4.5,1.5-6.4c1-1.9,2.4-3.4,4.1-4.4c1.8-1.1,3.8-1.6,6.1-1.6c1.9,0,3.5,0.4,4.9,1.1c1.4,0.7,2.6,1.8,3.4,3.1V15h5.1v34.5  H212l-0.5-3.7c-0.8,1.1-1.8,2.1-3.2,3C206.9,49.7,205.2,50.1,203.1,50.1 M204,45.7c2.2,0,3.9-0.8,5.3-2.3c1.4-1.5,2.1-3.4,2.1-5.8  c0-2.4-0.7-4.3-2.1-5.8c-1.4-1.5-3.1-2.3-5.3-2.3c-2.2,0-4,0.8-5.4,2.3c-1.4,1.5-2.1,3.4-2.1,5.8c0,1.6,0.3,3,1,4.2  c0.6,1.2,1.5,2.2,2.6,2.9C201.3,45.3,202.6,45.7,204,45.7 M129.8,50.1c-2.5,0-4.6-0.4-6.5-1.3c-1.9-0.9-3.3-2.1-4.4-3.7  c-1-1.6-1.6-3.5-1.6-5.7h5.4c0,1.8,0.7,3.3,1.9,4.6c1.2,1.2,2.9,1.9,5.1,1.9c2,0,3.5-0.5,4.6-1.4c1.1-1,1.7-2.2,1.7-3.6  c0-1.2-0.3-2.1-0.8-2.9c-0.5-0.7-1.2-1.3-2.2-1.8c-0.9-0.5-1.9-0.9-3.1-1.3c-1.2-0.4-2.4-0.8-3.7-1.2c-2.6-0.9-4.5-2-5.9-3.4  c-1.3-1.4-1.9-3.2-1.9-5.4c0-1.9,0.4-3.5,1.3-4.9c0.9-1.4,2.2-2.5,3.8-3.3c1.7-0.8,3.6-1.2,5.8-1.2c2.2,0,4.1,0.4,5.7,1.2  c1.7,0.8,3,1.9,3.9,3.4c0.9,1.4,1.4,3.1,1.4,4.9h-5.4c0-0.9-0.2-1.7-0.7-2.4c-0.4-0.8-1.1-1.5-2-2c-0.9-0.5-1.9-0.8-3.2-0.8  c-1.6,0-2.9,0.4-4,1.2c-1,0.8-1.5,2-1.5,3.5c0,1.3,0.4,2.3,1.2,3c0.8,0.7,1.8,1.3,3.2,1.8c1.3,0.4,2.9,1,4.6,1.6  c1.7,0.5,3.1,1.2,4.5,2c1.3,0.8,2.3,1.8,3.1,3c0.8,1.2,1.2,2.8,1.2,4.7c0,1.7-0.4,3.3-1.3,4.7c-0.9,1.4-2.2,2.6-3.9,3.5  C134.4,49.6,132.3,50.1,129.8,50.1 M157.8,50.1c-2.3,0-4.4-0.5-6.2-1.5c-1.8-1.1-3.2-2.5-4.2-4.4c-1-1.9-1.5-4-1.5-6.5  c0-2.5,0.5-4.7,1.5-6.6c1-1.9,2.4-3.4,4.2-4.4c1.8-1.1,3.9-1.6,6.3-1.6c2.3,0,4.4,0.5,6.1,1.6c1.7,1,3.1,2.4,4,4.1  c1,1.7,1.4,3.6,1.4,5.7c0,0.3,0,0.7,0,1.1c0,0.4,0,0.8,0,1.2h-18.5c0.2,2.3,0.9,4.1,2.3,5.3c1.4,1.2,3,1.8,4.7,1.8  c1.4,0,2.6-0.3,3.6-1c1-0.7,1.7-1.6,2.2-2.7h5.1c-0.6,2.2-1.9,4.1-3.8,5.6C163,49.3,160.6,50.1,157.8,50.1 M157.8,29.3  c-1.7,0-3.2,0.5-4.5,1.5c-1.3,1-2.1,2.5-2.4,4.5h13.4c-0.1-1.9-0.8-3.3-2-4.4C161.1,29.9,159.6,29.3,157.8,29.3 M179.2,25.7h-4.6  v23.8h5.1V38.1c0-1.9,0.3-3.5,1-4.6c0.7-1.1,1.6-1.9,2.6-2.3c1.1-0.5,2.4-0.7,3.8-0.7h1.4v-5.3c-2.1,0-3.9,0.5-5.4,1.4  c-1.5,0.9-2.6,2.1-3.5,3.7L179.2,25.7z M227.8,48.6c1.8,1,3.9,1.5,6.2,1.5c2.8,0,5.2-0.8,7-2.3c1.9-1.5,3.2-3.4,3.8-5.6h-5.1  c-0.5,1.1-1.2,2-2.2,2.7c-1,0.6-2.2,1-3.6,1c-1.8,0-3.4-0.6-4.7-1.8c-1.3-1.2-2.1-3-2.3-5.3h18.5c0-0.4,0-0.8,0-1.2  c0-0.4,0-0.7,0-1.1c0-2.1-0.5-4-1.4-5.7c-1-1.7-2.3-3.1-4-4.1c-1.7-1.1-3.8-1.6-6.1-1.6c-2.4,0-4.5,0.5-6.3,1.6  c-1.8,1.1-3.2,2.5-4.2,4.4c-1,1.9-1.5,4.1-1.5,6.6c0,2.5,0.5,4.6,1.5,6.5C224.6,46,226,47.5,227.8,48.6 M229.5,30.9  c1.3-1,2.8-1.5,4.5-1.5c1.8,0,3.3,0.5,4.6,1.6c1.2,1.1,1.9,2.6,2,4.4h-13.4C227.4,33.3,228.2,31.8,229.5,30.9 M262.2,50.1  c-2.3,0-4.4-0.5-6.3-1.6c-1.8-1.1-3.3-2.5-4.3-4.4c-1-1.9-1.5-4.1-1.5-6.5c0-2.5,0.5-4.6,1.5-6.5c1.1-1.9,2.5-3.4,4.3-4.4  c1.9-1.1,3.9-1.6,6.3-1.6c2.9,0,5.4,0.8,7.4,2.3c2,1.5,3.3,3.6,3.9,6.2h-5.3c-0.3-1.3-1-2.3-2.1-3.1c-1.1-0.7-2.4-1.1-3.8-1.1  c-1.2,0-2.4,0.3-3.5,1c-1.1,0.6-1.9,1.5-2.5,2.7c-0.6,1.2-1,2.7-1,4.4c0,1.8,0.3,3.2,1,4.5c0.6,1.2,1.5,2.1,2.5,2.7  c1.1,0.6,2.2,1,3.5,1c1.5,0,2.7-0.4,3.8-1.1c1.1-0.7,1.8-1.8,2.1-3.1h5.3c-0.5,2.6-1.8,4.6-3.8,6.2  C267.6,49.3,265.1,50.1,262.2,50.1 M277.4,45.4v4.1h18.7v-4.2h-13l12.8-15.4v-4.1h-18.3v4.2h12.5L277.4,45.4z M301.3,25.7h4.5  l0.4,4.2c0.7-1.5,1.8-2.6,3.2-3.5c1.4-0.9,3.1-1.3,4.9-1.3c2.9,0,5.1,0.9,6.8,2.7c1.7,1.8,2.5,4.5,2.5,8v13.7h-5V36.4  c0-4.6-1.9-6.9-5.7-6.9c-1.9,0-3.5,0.7-4.7,2c-1.2,1.3-1.8,3.3-1.8,5.8v12.3h-5.1V25.7z M332.7,49.1c1.3,0.7,3,1,5,1  c2.1,0,3.8-0.4,5-1.3c1.3-0.9,2.3-2,2.9-3.3l0.4,4.1h4.4V34.9c0-3-0.9-5.4-2.7-7.1c-1.8-1.8-4.4-2.6-7.7-2.6c-1.9,0-3.6,0.3-5.1,1  c-1.5,0.6-2.8,1.6-3.8,2.8c-1,1.2-1.6,2.7-1.7,4.4h5.1c0.2-1.3,0.8-2.3,1.9-3c1.1-0.7,2.3-1.1,3.7-1.1c1.6,0,2.9,0.5,3.9,1.4  c1,0.9,1.5,2.3,1.5,4.2v0.4h-6.2c-3.3,0-5.9,0.7-7.7,2c-1.8,1.3-2.7,3.2-2.7,5.5c0,1.3,0.3,2.5,1,3.6  C330.4,47.5,331.4,48.4,332.7,49.1 M342.1,45c-0.9,0.6-2.1,1-3.5,1c-1.4,0-2.5-0.3-3.4-0.9c-0.8-0.6-1.2-1.5-1.2-2.6  c0-1.1,0.4-1.9,1.2-2.6c0.9-0.7,2.3-1.1,4.3-1.1h5.7c-0.1,1.3-0.5,2.5-1,3.6C343.8,43.5,343.1,44.3,342.1,45"></path></g></svg>